M48
METRIC,LZ,000.000
;FILE_FORMAT=3:3
;TYPE=PLATED
;Layer: PTH_Through
;EasyEDA v6.5.50, 2025-05-22 18:22:48
;fc6da040da284c709fc099fb5742b6c8,f287e63262dc457b8036977447f4c865,10
;Gerber Generator version 0.2
;Holesize 1 = 0.889 mm
T01C0.889
;Holesize 2 = 0.915 mm
T02C0.915
;Holesize 3 = 1.016 mm
T03C1.016
;Holesize 4 = 1.800 mm
T04C1.800
;Holesize 5 = 2.650 mm
T05C2.650
%
G05
G90
T01
X092202Y083312
X089662Y083312
X087122Y083312
X083312Y083947
X080772Y083947
X078232Y083947
X074676Y083185
X072136Y083185
X069596Y083185
X061087Y083185
X063627Y083185
X066167Y083185
T02
X048895Y054991
X048895Y057531
X048895Y060071
X048895Y062611
X048895Y065151
X048895Y067691
X048895Y070231
X048895Y072771
X110109Y084201
X127254Y084201
X127254Y044196
X110109Y044196
T03
X063754Y052934G85X063754Y052984
X066294Y052934G85X066294Y052984
X068834Y052934G85X068834Y052984
X071374Y052934G85X071374Y052984
X073914Y052934G85X073914Y052984
X076454Y052934G85X076454Y052984
X078994Y052934G85X078994Y052984
X081534Y052934G85X081534Y052984
X084074Y052934G85X084074Y052984
X086614Y052934G85X086614Y052984
X089154Y052934G85X089154Y052984
X091694Y052934G85X091694Y052984
X094234Y052934G85X094234Y052984
X096774Y052934G85X096774Y052984
X099314Y052934G85X099314Y052984
X063754Y078334G85X063754Y078384
X066294Y078334G85X066294Y078384
X068834Y078334G85X068834Y078384
X071374Y078334G85X071374Y078384
X073914Y078334G85X073914Y078384
X076454Y078334G85X076454Y078384
X078994Y078334G85X078994Y078384
X081534Y078334G85X081534Y078384
X084074Y078334G85X084074Y078384
X086614Y078334G85X086614Y078384
X089154Y078334G85X089154Y078384
X091694Y078334G85X091694Y078384
X094234Y078334G85X094234Y078384
X096774Y078334G85X096774Y078384
X099314Y078334G85X099314Y078384
T04
X070358Y043356G85X070358Y046306
X077323Y045831G85X074373Y045831
T05
X105000Y084000
X097663Y083947
X054864Y046863
X039370Y042164
X055000Y084000
X039370Y084000
X105029Y041783
X090678Y041783
M30
