G04 Layer: BottomLayer*
G04 EasyEDA v6.5.50, 2025-05-22 18:22:48*
G04 fc6da040da284c709fc099fb5742b6c8,f287e63262dc457b8036977447f4c865,10*
G04 Gerber Generator version 0.2*
G04 Scale: 100 percent, Rotated: No, Reflected: No *
G04 Dimensions in millimeters *
G04 leading zeros omitted , absolute positions ,4 integer and 5 decimal *
%FSLAX45Y45*%
%MOMM*%

%ADD10C,2.0000*%
%ADD11C,0.6000*%
%ADD12O,1.3081X2.615946*%
%ADD13C,1.5748*%
%ADD14R,1.5748X1.5748*%
%ADD15C,1.5240*%
%ADD16C,3.0000*%
%ADD17C,3.6500*%
%ADD18O,2.999994X5.999988*%
%ADD19O,5.999988X2.999994*%
%ADD20O,0.01X2.999994*%

%LPD*%
D10*
X11042624Y4377778D02*
G01*
X10882782Y4537621D01*
X9378975Y4537621D01*
X4546600Y6019800D02*
G01*
X4546600Y5080000D01*
X4940300Y4686300D01*
X5486400Y4686300D01*
D11*
X4889500Y6007100D02*
G01*
X4876800Y6019800D01*
X4546600Y6019800D01*
D10*
X5499988Y8399983D02*
G01*
X4546600Y7446594D01*
X4546600Y6019800D01*
D11*
X6629400Y5295900D02*
G01*
X6629145Y4953000D01*
D10*
X7584795Y4583099D02*
G01*
X7214895Y4953000D01*
X5778500Y4953000D01*
X5511800Y4686300D01*
X5486400Y4686300D01*
X12725400Y4419600D02*
G01*
X12407900Y4102100D01*
X10642600Y4102100D01*
X10502900Y4241800D01*
X10502900Y4267200D01*
X7584795Y4583099D02*
G01*
X7802295Y4800600D01*
X12344400Y4800600D01*
X12725400Y4419600D01*
X7035800Y4483100D02*
G01*
X7277100Y4241800D01*
X9067800Y4241800D01*
X9378975Y4537621D02*
G01*
X9099524Y4258170D01*
X3937000Y4216400D02*
G01*
X6769100Y4216400D01*
X7035800Y4483100D01*
D11*
X6629400Y7835900D02*
G01*
X6629400Y7879943D01*
X6412102Y8097240D01*
X6337554Y8097240D01*
X6116294Y8318500D01*
D10*
X12725400Y8420100D02*
G01*
X12382500Y8763000D01*
X10863072Y8763000D01*
X10499852Y8400034D01*
X3937000Y8400034D02*
G01*
X4312665Y8775700D01*
X9385300Y8775700D01*
X9766300Y8394700D01*
D11*
X7823200Y8225942D02*
G01*
X7749692Y8225942D01*
X7391400Y7867650D01*
X7391400Y7835900D01*
X7823200Y8394700D02*
G01*
X7823200Y8225942D01*
X11010900Y8420100D02*
G01*
X10197566Y7606766D01*
X6568287Y7606766D01*
X6375400Y7799654D01*
X6375400Y7835900D01*
X4889500Y6261100D02*
G01*
X8748013Y6261100D01*
X9677400Y5331713D01*
X9677400Y5295900D01*
X4889500Y6515100D02*
G01*
X9008821Y6515100D01*
X10094112Y5429808D01*
X10094112Y5148986D01*
X10009428Y5064302D01*
X9107550Y5064302D01*
X8915400Y5256453D01*
X8915400Y5295900D01*
X4889500Y5499100D02*
G01*
X6172200Y5499100D01*
X6375400Y5295900D01*
X6959600Y8149742D02*
G01*
X7137400Y7971942D01*
X7137400Y7835900D01*
X6959600Y8318500D02*
G01*
X6959600Y8149742D01*
X8543442Y8331200D02*
G01*
X8317991Y8105749D01*
X7857363Y8105749D01*
X7645400Y7893786D01*
X7645400Y7835900D01*
X8712200Y8331200D02*
G01*
X8543442Y8331200D01*
X6616700Y8149742D02*
G01*
X6883400Y7883042D01*
X6883400Y7835900D01*
X6616700Y8318500D02*
G01*
X6616700Y8149742D01*
X8331200Y8503589D02*
G01*
X8331200Y8394700D01*
X9220200Y8331200D02*
G01*
X9047810Y8503589D01*
X8331200Y8503589D01*
X6629400Y5295900D02*
G01*
X6629400Y5240629D01*
X7467600Y8503589D02*
G01*
X7467600Y8318500D01*
X7467600Y8503589D02*
G01*
X7534503Y8570493D01*
X8264296Y8570493D01*
X8331200Y8503589D01*
X6116294Y8318500D02*
G01*
X6108700Y8318500D01*
X6116294Y8318500D02*
G01*
X6301384Y8503589D01*
X7467600Y8503589D01*
D10*
X3937000Y8400034D02*
G01*
X4203700Y8133334D01*
X4203700Y4483100D01*
X3937000Y4216400D01*
D12*
G01*
X6375400Y5295900D03*
G01*
X6629400Y5295900D03*
G01*
X6883400Y5295900D03*
G01*
X7137400Y5295900D03*
G01*
X7391400Y5295900D03*
G01*
X7645400Y5295900D03*
G01*
X7899400Y5295900D03*
G01*
X8153400Y5295900D03*
G01*
X8407400Y5295900D03*
G01*
X8661400Y5295900D03*
G01*
X8915400Y5295900D03*
G01*
X9169400Y5295900D03*
G01*
X9423400Y5295900D03*
G01*
X9677400Y5295900D03*
G01*
X9931400Y5295900D03*
G01*
X6375400Y7835900D03*
G01*
X6629400Y7835900D03*
G01*
X6883400Y7835900D03*
G01*
X7137400Y7835900D03*
G01*
X7391400Y7835900D03*
G01*
X7645400Y7835900D03*
G01*
X7899400Y7835900D03*
G01*
X8153400Y7835900D03*
G01*
X8407400Y7835900D03*
G01*
X8661400Y7835900D03*
G01*
X8915400Y7835900D03*
G01*
X9169400Y7835900D03*
G01*
X9423400Y7835900D03*
G01*
X9677400Y7835900D03*
G01*
X9931400Y7835900D03*
D13*
G01*
X9220200Y8331200D03*
G01*
X8966200Y8331200D03*
D14*
G01*
X8712200Y8331200D03*
D13*
G01*
X8331200Y8394700D03*
G01*
X8077200Y8394700D03*
D14*
G01*
X7823200Y8394700D03*
D13*
G01*
X7467600Y8318500D03*
G01*
X7213600Y8318500D03*
D14*
G01*
X6959600Y8318500D03*
D13*
G01*
X6108700Y8318500D03*
G01*
X6362700Y8318500D03*
D14*
G01*
X6616700Y8318500D03*
D15*
G01*
X4889500Y5499100D03*
G01*
X4889500Y5753100D03*
G01*
X4889500Y6007100D03*
G01*
X4889500Y6261100D03*
G01*
X4889500Y6515100D03*
G01*
X4889500Y6769100D03*
G01*
X4889500Y7023100D03*
G01*
X4889500Y7277100D03*
D16*
G01*
X11010900Y8420100D03*
G01*
X12725400Y8420100D03*
G01*
X12725400Y4419600D03*
G01*
X11010900Y4419600D03*
D17*
G01*
X10499979Y8399983D03*
G01*
X9766300Y8394700D03*
G01*
X5486400Y4686300D03*
G01*
X3937000Y4216400D03*
G01*
X5499988Y8399983D03*
G01*
X3937000Y8399983D03*
G01*
X10502900Y4178300D03*
G01*
X9067800Y4178300D03*
D18*
G01*
X7035800Y4483100D03*
D19*
G01*
X7584795Y4583099D03*
M02*
