G04 Layer: TopLayer*
G04 EasyEDA v6.5.50, 2025-05-22 18:22:48*
G04 fc6da040da284c709fc099fb5742b6c8,f287e63262dc457b8036977447f4c865,10*
G04 Gerber Generator version 0.2*
G04 Scale: 100 percent, Rotated: No, Reflected: No *
G04 Dimensions in millimeters *
G04 leading zeros omitted , absolute positions ,4 integer and 5 decimal *
%FSLAX45Y45*%
%MOMM*%

%ADD10O,1.3081X2.615946*%
%ADD11C,1.5748*%
%ADD12R,1.5748X1.5748*%
%ADD13C,1.5240*%
%ADD14C,3.0000*%
%ADD15C,3.6500*%
%ADD16O,2.999994X5.999988*%
%ADD17O,5.999988X2.999994*%
%ADD18O,0.0156X2.999994*%

%LPD*%
D10*
G01*
X6375400Y5295900D03*
G01*
X6629400Y5295900D03*
G01*
X6883400Y5295900D03*
G01*
X7137400Y5295900D03*
G01*
X7391400Y5295900D03*
G01*
X7645400Y5295900D03*
G01*
X7899400Y5295900D03*
G01*
X8153400Y5295900D03*
G01*
X8407400Y5295900D03*
G01*
X8661400Y5295900D03*
G01*
X8915400Y5295900D03*
G01*
X9169400Y5295900D03*
G01*
X9423400Y5295900D03*
G01*
X9677400Y5295900D03*
G01*
X9931400Y5295900D03*
G01*
X6375400Y7835900D03*
G01*
X6629400Y7835900D03*
G01*
X6883400Y7835900D03*
G01*
X7137400Y7835900D03*
G01*
X7391400Y7835900D03*
G01*
X7645400Y7835900D03*
G01*
X7899400Y7835900D03*
G01*
X8153400Y7835900D03*
G01*
X8407400Y7835900D03*
G01*
X8661400Y7835900D03*
G01*
X8915400Y7835900D03*
G01*
X9169400Y7835900D03*
G01*
X9423400Y7835900D03*
G01*
X9677400Y7835900D03*
G01*
X9931400Y7835900D03*
D11*
G01*
X9220200Y8331200D03*
G01*
X8966200Y8331200D03*
D12*
G01*
X8712200Y8331200D03*
D11*
G01*
X8331200Y8394700D03*
G01*
X8077200Y8394700D03*
D12*
G01*
X7823200Y8394700D03*
D11*
G01*
X7467600Y8318500D03*
G01*
X7213600Y8318500D03*
D12*
G01*
X6959600Y8318500D03*
D11*
G01*
X6108700Y8318500D03*
G01*
X6362700Y8318500D03*
D12*
G01*
X6616700Y8318500D03*
D13*
G01*
X4889500Y5499100D03*
G01*
X4889500Y5753100D03*
G01*
X4889500Y6007100D03*
G01*
X4889500Y6261100D03*
G01*
X4889500Y6515100D03*
G01*
X4889500Y6769100D03*
G01*
X4889500Y7023100D03*
G01*
X4889500Y7277100D03*
D14*
G01*
X11010900Y8420100D03*
G01*
X12725400Y8420100D03*
G01*
X12725400Y4419600D03*
G01*
X11010900Y4419600D03*
D15*
G01*
X10499979Y8399983D03*
G01*
X9766300Y8394700D03*
G01*
X5486400Y4686300D03*
G01*
X3937000Y4216400D03*
G01*
X5499988Y8399983D03*
G01*
X3937000Y8399983D03*
G01*
X10502900Y4178300D03*
G01*
X9067800Y4178300D03*
D16*
G01*
X7035800Y4483100D03*
D17*
G01*
X7584795Y4583099D03*
M02*
